# xmcd
#
# Track frame offsets:
#	225
#	13317
#	26361
#	39405
#	50839
#	67561
#	80166
#	96574
#	108984
#	126681
#	136896
#	155157
#	169803
#	186671
#	200341
#	213127
#
# Disc length: 2984 seconds
#
# Revision: 0
# Processed by: cddbd v1.5.2PL0 Copyright (c) Steve Scherf et al.
# Submitted via: EasyCDDAExtractor 12.0.0.1
#
DISCID=ed0ba510
DTITLE=Zé Antonio E Divaney - Zé Antonio E Divaney - Caipira Mesmo
DYEAR=1900
DGENRE=Moda
TTITLE0=Saudade De Minha Terra
TTITLE1=Pagode Do Chifrudinho
TTITLE2=Moreninha Linda
TTITLE3=Destinos Iguais
TTITLE4=Vaca Estrela E Boi Fubá
TTITLE5=Moda Da Mula Preta
TTITLE6=Amor E Saudade
TTITLE7=Pagode Em Brasília
TTITLE8=Travessia Do Araguaia
TTITLE9=Cana Verde
TTITLE10=Boiadeiro De Palavra
TTITLE11=O Menino Da Porteira
TTITLE12=Boiadeiro Errante
TTITLE13=Pretinho Aleijado
TTITLE14=Boiada Cuiabana
TTITLE15=Cavalo Preto
EXTD=
EXTT0=
EXTT1=
EXTT2=
EXTT3=
EXTT4=
EXTT5=
EXTT6=
EXTT7=
EXTT8=
EXTT9=
EXTT10=
EXTT11=
EXTT12=
EXTT13=
EXTT14=
EXTT15=
PLAYORDER=
